<?xml version="1.0" encoding="utf-8"?>
<!-- Generator: Adobe Illustrator 19.1.0, SVG Export Plug-In . SVG Version: 6.00 Build 0)  -->
<svg version="1.1" id="Ebene_1" xmlns="http://www.w3.org/2000/svg" xmlns:xlink="http://www.w3.org/1999/xlink" x="0px" y="0px"
	 viewBox="0 0 145 38" enable-background="new 0 0 145 38" xml:space="preserve">
<g>
	<g>
		<path fill="#343434" d="M19.6,22.3V7.5L14,22.3h-2.5L5.8,7.5v14.7H0.1V0h8l4.7,12.3L17.4,0h8v22.3H19.6z"/>
		<path fill="#343434" d="M27.3,14.2c0-5,3.7-8.4,8.8-8.4c3.5,0,5.6,1.5,6.6,3l-3.3,3.1c-0.6-0.9-1.7-1.5-3-1.5
			c-2.1,0-3.8,1.5-3.8,3.9c0,2.4,1.6,3.9,3.8,3.9c1.4,0,2.4-0.7,3-1.6l3.3,3.1c-1,1.4-3.1,3-6.6,3C31.1,22.7,27.3,19.2,27.3,14.2z"
			/>
		<path fill="#343434" d="M65.6,22.3V7.5L60,22.3h-2.5L51.8,7.5v14.7H46V0h8l4.7,12.3L63.3,0h8v22.3H65.6z"/>
		<path fill="#343434" d="M83.9,22.3v-1.6c-1,1.2-2.9,2-5,2c-2.5,0-5.5-1.7-5.5-5.3c0-3.9,3.1-5.2,5.5-5.2c2.1,0,4,0.7,5,1.9v-1.6
			c0-1.4-1.2-2.4-3.3-2.4c-1.6,0-3.2,0.6-4.5,1.7l-1.9-3.6c2.1-1.8,4.8-2.5,7.3-2.5c3.9,0,7.5,1.4,7.5,6.4v10.1H83.9z M83.9,18.1
			v-1.4c-0.5-0.8-1.7-1.1-2.9-1.1c-1.3,0-2.6,0.6-2.6,1.9c0,1.3,1.2,1.9,2.6,1.9C82.1,19.3,83.3,18.9,83.9,18.1z"/>
		<path fill="#343434" d="M101.6,22.3L98,16.6l-1.5,1.8v3.9h-5.1V0h5.1v12.6l4.9-6.4h6.2l-5.9,7.3l6.2,8.8H101.6z"/>
		<path fill="#343434" d="M109.3,22.3V0h5.1v22.3H109.3z"/>
		<path fill="#343434" d="M116.3,14.2c0-4.7,3.5-8.4,8.5-8.4c4.8,0,8.2,3.5,8.2,9v1.2h-11.5c0.4,1.4,1.7,2.6,4,2.6
			c1.1,0,3-0.5,3.9-1.4l2.2,3.4c-1.6,1.4-4.3,2.1-6.7,2.1C120.1,22.7,116.3,19.4,116.3,14.2z M124.9,9.9c-2.2,0-3.1,1.3-3.3,2.5h6.6
			C128.1,11.3,127.2,9.9,124.9,9.9z"/>
		<path fill="#343434" d="M134.8,22.3V6.1h5.1v2c1.1-1.3,3.1-2.4,5-2.4v4.9c-0.3-0.1-0.7-0.1-1.3-0.1c-1.3,0-3.1,0.6-3.8,1.5v10.3
			H134.8z"/>
	</g>
	<g>
		<path fill="#343434" d="M0,35.4v-5.7h0.7v5.7H0z"/>
		<path fill="#343434" d="M4.9,35.4v-2.7c0-0.7-0.4-0.9-0.9-0.9c-0.5,0-1,0.3-1.2,0.6v3H2.1v-5.7h0.6v2.2c0.3-0.4,0.8-0.7,1.5-0.7
			c0.9,0,1.3,0.4,1.3,1.3v2.9H4.9z"/>
		<path fill="#343434" d="M6.9,35.4v-4.1h0.6v0.7c0.3-0.4,0.8-0.8,1.4-0.8v0.7c-0.1,0-0.2,0-0.2,0c-0.4,0-0.9,0.3-1.1,0.7v2.9H6.9z"
			/>
		<path fill="#343434" d="M12.2,35.4v-5.7h2.3c1.1,0,1.8,0.8,1.8,1.7s-0.7,1.7-1.8,1.7h-1.6v2.3H12.2z M15.5,31.4
			c0-0.6-0.5-1.1-1.1-1.1h-1.5v2.2h1.5C15,32.5,15.5,32.1,15.5,31.4z"/>
		<path fill="#343434" d="M19.7,35.4v-0.5c-0.3,0.4-0.8,0.6-1.4,0.6c-0.7,0-1.4-0.5-1.4-1.4c0-0.9,0.7-1.4,1.4-1.4
			c0.6,0,1,0.2,1.4,0.6v-0.7c0-0.5-0.4-0.9-1-0.9c-0.5,0-0.9,0.2-1.3,0.6L17,31.9c0.4-0.5,1-0.7,1.7-0.7c0.9,0,1.6,0.4,1.6,1.4v2.8
			H19.7z M19.7,34.5v-0.8c-0.2-0.3-0.7-0.5-1.1-0.5c-0.6,0-1,0.4-1,0.9c0,0.5,0.4,0.9,1,0.9C19,35,19.4,34.9,19.7,34.5z"/>
		<path fill="#343434" d="M21.7,35.4v-4.1h0.6v0.7c0.3-0.4,0.8-0.8,1.4-0.8v0.7c-0.1,0-0.2,0-0.2,0c-0.4,0-0.9,0.3-1.1,0.7v2.9H21.7
			z"/>
		<path fill="#343434" d="M24.7,34.5v-2.7H24v-0.6h0.7v-1.1h0.6v1.1h0.8v0.6h-0.8v2.6c0,0.3,0.1,0.5,0.4,0.5c0.2,0,0.4-0.1,0.4-0.2
			l0.2,0.5c-0.2,0.2-0.4,0.3-0.8,0.3C25,35.5,24.7,35.2,24.7,34.5z"/>
		<path fill="#343434" d="M30,35.4v-2.7c0-0.7-0.4-1-0.9-1c-0.5,0-1,0.3-1.2,0.6v3h-0.6v-4.1h0.6v0.6c0.3-0.4,0.9-0.7,1.5-0.7
			c0.9,0,1.3,0.4,1.3,1.3v2.9H30z"/>
		<path fill="#343434" d="M31.8,33.3c0-1.2,0.9-2.2,2-2.2c1.3,0,2,1,2,2.2v0.2h-3.3c0.1,0.8,0.6,1.4,1.5,1.4c0.5,0,1-0.2,1.3-0.5
			l0.3,0.4c-0.4,0.4-1,0.6-1.6,0.6C32.7,35.5,31.8,34.6,31.8,33.3z M33.8,31.7c-0.9,0-1.3,0.7-1.4,1.4h2.7
			C35.2,32.5,34.7,31.7,33.8,31.7z"/>
		<path fill="#343434" d="M36.9,35.4v-4.1h0.6v0.7c0.3-0.4,0.8-0.8,1.4-0.8v0.7c-0.1,0-0.2,0-0.2,0c-0.4,0-0.9,0.3-1.1,0.7v2.9H36.9
			z"/>
		<path fill="#343434" d="M42.1,35.4v-5.7h0.6v2.2c0.3-0.5,0.8-0.7,1.4-0.7c1.1,0,1.8,0.8,1.8,2.2c0,1.3-0.8,2.2-1.8,2.2
			c-0.6,0-1.1-0.3-1.4-0.7v0.6H42.1z M44,34.9c0.8,0,1.3-0.7,1.3-1.6c0-0.9-0.5-1.6-1.3-1.6c-0.5,0-1,0.3-1.2,0.7v1.9
			C43,34.6,43.5,34.9,44,34.9z"/>
		<path fill="#343434" d="M46.9,33.3c0-1.2,0.9-2.2,2-2.2c1.3,0,2,1,2,2.2v0.2h-3.3c0.1,0.8,0.6,1.4,1.5,1.4c0.5,0,1-0.2,1.3-0.5
			l0.3,0.4c-0.4,0.4-1,0.6-1.6,0.6C47.8,35.5,46.9,34.6,46.9,33.3z M48.9,31.7c-0.9,0-1.3,0.7-1.4,1.4h2.7
			C50.3,32.5,49.9,31.7,48.9,31.7z"/>
		<path fill="#343434" d="M51.9,30.3c0-0.2,0.2-0.4,0.4-0.4s0.4,0.2,0.4,0.4s-0.2,0.4-0.4,0.4S51.9,30.5,51.9,30.3z M52.1,35.4v-4.1
			h0.6v4.1H52.1z"/>
		<path fill="#343434" d="M58.1,35.4l-2.3-5.7h0.8l1.9,4.9l1.9-4.9h0.8L59,35.4H58.1z"/>
		<path fill="#343434" d="M61.3,33.3c0-1.2,0.9-2.2,2-2.2c1.3,0,2,1,2,2.2v0.2H62c0.1,0.8,0.6,1.4,1.5,1.4c0.5,0,1-0.2,1.3-0.5
			l0.3,0.4c-0.4,0.4-1,0.6-1.6,0.6C62.2,35.5,61.3,34.6,61.3,33.3z M63.4,31.7c-0.9,0-1.3,0.7-1.4,1.4h2.7
			C64.7,32.5,64.3,31.7,63.4,31.7z"/>
		<path fill="#343434" d="M66.5,35.4v-4.1h0.6v0.7c0.3-0.4,0.8-0.8,1.4-0.8v0.7c-0.1,0-0.2,0-0.2,0c-0.4,0-0.9,0.3-1.1,0.7v2.9H66.5
			z"/>
		<path fill="#343434" d="M74.4,35.4v-2.8c0-0.5-0.2-0.9-0.8-0.9c-0.4,0-0.9,0.3-1.1,0.6v3h-0.6v-2.8c0-0.5-0.2-0.9-0.8-0.9
			c-0.4,0-0.9,0.3-1.1,0.6v3h-0.6v-4.1H70v0.6c0.2-0.3,0.7-0.7,1.3-0.7c0.6,0,1,0.3,1.1,0.8c0.2-0.4,0.8-0.8,1.4-0.8
			c0.8,0,1.2,0.4,1.2,1.2v3H74.4z"/>
		<path fill="#343434" d="M76.3,30.3c0-0.2,0.2-0.4,0.4-0.4s0.4,0.2,0.4,0.4s-0.2,0.4-0.4,0.4S76.3,30.5,76.3,30.3z M76.4,35.4v-4.1
			H77v4.1H76.4z"/>
		<path fill="#343434" d="M78.2,33.3c0-1.2,0.9-2.2,2-2.2c1.3,0,2,1,2,2.2v0.2h-3.3c0.1,0.8,0.6,1.4,1.5,1.4c0.5,0,1-0.2,1.3-0.5
			l0.3,0.4c-0.4,0.4-1,0.6-1.6,0.6C79.1,35.5,78.2,34.6,78.2,33.3z M80.2,31.7c-0.9,0-1.3,0.7-1.4,1.4h2.7
			C81.6,32.5,81.1,31.7,80.2,31.7z"/>
		<path fill="#343434" d="M83.4,34.5v-2.7h-0.7v-0.6h0.7v-1.1h0.6v1.1h0.8v0.6h-0.8v2.6c0,0.3,0.1,0.5,0.4,0.5
			c0.2,0,0.4-0.1,0.4-0.2l0.2,0.5c-0.2,0.2-0.4,0.3-0.8,0.3C83.8,35.5,83.4,35.2,83.4,34.5z"/>
		<path fill="#343434" d="M88.7,35.4v-0.6c-0.3,0.4-0.9,0.7-1.5,0.7c-0.9,0-1.3-0.4-1.3-1.3v-2.9h0.6V34c0,0.7,0.4,0.9,0.9,0.9
			c0.5,0,1-0.3,1.2-0.6v-3h0.6v4.1H88.7z"/>
		<path fill="#343434" d="M93.5,35.4v-2.7c0-0.7-0.4-1-0.9-1c-0.5,0-1,0.3-1.2,0.6v3h-0.6v-4.1h0.6v0.6c0.3-0.4,0.9-0.7,1.5-0.7
			c0.9,0,1.3,0.4,1.3,1.3v2.9H93.5z"/>
		<path fill="#343434" d="M95.5,36.5l0.3-0.5c0.3,0.4,0.8,0.6,1.3,0.6c0.7,0,1.3-0.3,1.3-1.2v-0.6c-0.3,0.4-0.8,0.7-1.4,0.7
			c-1.1,0-1.8-0.8-1.8-2.1c0-1.3,0.8-2.1,1.8-2.1c0.6,0,1.1,0.3,1.4,0.7v-0.6h0.6v4.1c0,1.3-1,1.7-2,1.7
			C96.5,37.1,96,36.9,95.5,36.5z M98.5,34.2v-1.8c-0.2-0.4-0.7-0.7-1.2-0.7c-0.8,0-1.3,0.7-1.3,1.6c0,0.9,0.5,1.6,1.3,1.6
			C97.8,34.9,98.3,34.6,98.5,34.2z"/>
		<path fill="#343434" d="M106.6,35.4c-0.2-0.1-0.4-0.4-0.6-0.6c-0.4,0.4-0.9,0.7-1.6,0.7c-1,0-1.8-0.5-1.8-1.6
			c0-0.9,0.6-1.3,1.3-1.7c-0.3-0.4-0.4-0.9-0.4-1.3c0-0.8,0.6-1.3,1.4-1.3c0.7,0,1.3,0.4,1.3,1.1c0,0.9-0.7,1.2-1.5,1.6
			c0.2,0.3,0.5,0.6,0.7,0.8c0.2,0.3,0.5,0.5,0.7,0.8c0.3-0.5,0.5-1,0.6-1.3l0.5,0.2c-0.2,0.5-0.4,1-0.8,1.5c0.3,0.4,0.7,0.7,1.1,1.1
			H106.6z M105.6,34.4c-0.3-0.3-0.6-0.7-0.8-0.9c-0.2-0.3-0.5-0.6-0.7-0.9c-0.5,0.3-0.8,0.6-0.8,1.2c0,0.7,0.5,1.1,1.2,1.1
			C104.8,35,105.2,34.7,105.6,34.4z M104.3,31.9c0.6-0.3,1.1-0.6,1.1-1.2c0-0.4-0.3-0.7-0.7-0.7c-0.4,0-0.8,0.3-0.8,0.8
			C104,31.2,104.2,31.6,104.3,31.9z"/>
		<path fill="#343434" d="M112.5,35.4l-2.3-5.7h0.8l1.9,4.9l1.9-4.9h0.8l-2.3,5.7H112.5z"/>
		<path fill="#343434" d="M115.7,33.3c0-1.2,0.9-2.2,2-2.2c1.3,0,2,1,2,2.2v0.2h-3.3c0.1,0.8,0.6,1.4,1.5,1.4c0.5,0,1-0.2,1.3-0.5
			l0.3,0.4c-0.4,0.4-1,0.6-1.6,0.6C116.6,35.5,115.7,34.6,115.7,33.3z M117.7,31.7c-0.9,0-1.3,0.7-1.4,1.4h2.7
			C119.1,32.5,118.7,31.7,117.7,31.7z"/>
		<path fill="#343434" d="M120.9,35.4v-4.1h0.6v0.7c0.3-0.4,0.8-0.8,1.4-0.8v0.7c-0.1,0-0.2,0-0.2,0c-0.4,0-0.9,0.3-1.1,0.7v2.9
			H120.9z"/>
		<path fill="#343434" d="M126.6,35.4l-1.5-1.9l-0.7,0.7v1.2h-0.6v-5.7h0.6v3.8l2.2-2.2h0.8l-1.8,1.9l1.8,2.3H126.6z"/>
		<path fill="#343434" d="M130.8,35.4v-0.5c-0.3,0.4-0.8,0.6-1.4,0.6c-0.7,0-1.4-0.5-1.4-1.4c0-0.9,0.7-1.4,1.4-1.4
			c0.6,0,1,0.2,1.4,0.6v-0.7c0-0.5-0.4-0.9-1-0.9c-0.5,0-0.9,0.2-1.3,0.6l-0.3-0.4c0.4-0.5,1-0.7,1.7-0.7c0.9,0,1.6,0.4,1.6,1.4v2.8
			H130.8z M130.8,34.5v-0.8c-0.2-0.3-0.7-0.5-1.1-0.5c-0.6,0-1,0.4-1,0.9c0,0.5,0.4,0.9,1,0.9C130.2,35,130.6,34.9,130.8,34.5z"/>
		<path fill="#343434" d="M135.6,35.4v-0.6c-0.3,0.4-0.9,0.7-1.5,0.7c-0.9,0-1.3-0.4-1.3-1.3v-2.9h0.6V34c0,0.7,0.4,0.9,0.9,0.9
			c0.5,0,1-0.3,1.2-0.6v-3h0.6v4.1H135.6z"/>
		<path fill="#343434" d="M137.8,35.4v-3.6h-0.7v-0.6h0.7V31c0-0.8,0.5-1.3,1.2-1.3c0.3,0,0.6,0.1,0.9,0.3l-0.3,0.4
			c-0.1-0.1-0.3-0.2-0.5-0.2c-0.4,0-0.7,0.3-0.7,0.8v0.3h0.8v0.6h-0.8v3.6H137.8z"/>
		<path fill="#343434" d="M139.7,35c0-0.3,0.2-0.5,0.5-0.5s0.5,0.2,0.5,0.5c0,0.3-0.2,0.5-0.5,0.5S139.7,35.3,139.7,35z"/>
	</g>
</g>
</svg>
