<?xml version="1.0" encoding="utf-8"?>
<!-- Generator: Adobe Illustrator 20.0.0, SVG Export Plug-In . SVG Version: 6.00 Build 0)  -->
<svg version="1.1" id="Ebene_1" xmlns="http://www.w3.org/2000/svg" xmlns:xlink="http://www.w3.org/1999/xlink" x="0px" y="0px"
	 viewBox="0 0 1000 1000" style="enable-background:new 0 0 1000 1000;" xml:space="preserve">
<style type="text/css">
	.st0{fill:#DADADA;}
</style>
<g>
	<path class="st0" d="M605.7,790.8c-36.6-49.4-54.9-113.5-54.9-192.2c0-97,24.7-186.7,74.1-269c49.4-82.3,124.5-147.3,225.1-194.9
		l115.3,107.1c-71.4,23.8-130.8,61.3-178.4,112.6c-47.6,51.3-77.8,107.1-90.6,167.5l11,5.5c16.5-12.8,42.1-19.2,76.9-19.2
		c38.4,0,73.2,15.1,104.3,45.3c31.1,30.2,46.7,72.7,46.7,127.7c0,49.4-17.4,92.4-52.2,129c-34.7,36.6-76.9,54.9-126.3,54.9
		C692.6,864.9,642.3,840.2,605.7,790.8z M89.6,790.8C53,741.4,34.7,677.3,34.7,598.6c0-97,24.7-186.7,74.1-269
		c49.4-82.4,124.5-147.3,225.1-194.9l115.3,107.1c-71.4,23.8-130.8,61.3-178.4,112.6S193,461.5,180.2,521.9l11,5.5
		c16.5-12.8,42.1-19.2,76.9-19.2c38.4,0,73.2,15.1,104.3,45.3c31.1,30.2,46.7,72.7,46.7,127.7c0,49.4-17.4,92.4-52.2,129
		c-34.7,36.6-76.9,54.9-126.3,54.9C176.5,864.9,126.2,840.2,89.6,790.8z"/>
</g>
</svg>
