<?xml version="1.0" encoding="UTF-8"?>
<svg width="27px" height="18px" viewBox="0 0 27 18" version="1.1" xmlns="http://www.w3.org/2000/svg" xmlns:xlink="http://www.w3.org/1999/xlink">
    <!-- Generator: sketchtool 54.1 (76490) - https://sketchapp.com -->
    <title>20405D23-3B28-4CA8-92E0-998B2DD14A35</title>
    <desc>Created with sketchtool.</desc>
    <g id="Page-1" stroke="none" stroke-width="1" fill="none" fill-rule="evenodd">
        <g id="Artboard-Copy" transform="translate(-390.000000, -294.000000)" fill="#FEB902" fill-rule="nonzero">
            <g id="Group-Copy-2" transform="translate(378.000000, 288.000000)">
                <g id="Combined-Shape-2" transform="translate(12.000000, 6.000000)">
                    <path d="M13.2369659,8.42869231 C11.9690582,8.42869231 10.9412159,7.42720495 10.9412159,6.19180769 C10.9412159,4.95641043 11.9690582,3.95492308 13.2369659,3.95492308 C14.5048736,3.95492308 15.5327159,4.95641043 15.5327159,6.19180769 C15.5327159,7.42720495 14.5048736,8.42869231 13.2369659,8.42869231 Z M8.23746589,10.6538846 C6.99921589,10.6538846 5.99496589,9.67465385 5.99571589,8.46815385 L5.99571589,3.91546154 C5.99571589,2.70896154 6.99996589,1.73046154 8.23821589,1.73046154 L8.75571589,1.73046154 C8.97021589,0.741730769 9.86946589,8.8817842e-16 10.9479659,8.8817842e-16 L15.5274659,8.8817842e-16 C16.6052159,8.8817842e-16 17.5044659,0.741730769 17.7197159,1.73119231 L18.2372159,1.73119231 C19.4762159,1.73119231 20.4797159,2.70969231 20.4797159,3.91619231 L20.4797159,8.46888462 C20.4797159,9.67465385 19.4762159,10.6538846 18.2372159,10.6538846 L8.23746589,10.6538846 Z M13.2369659,3.00419231 C11.4309659,3.00419231 9.96621589,4.43211538 9.96621589,6.19180769 C9.96621589,7.9515 11.4309659,9.37869231 13.2369659,9.37869231 C15.0429659,9.37869231 16.5077159,7.95076923 16.5077159,6.19107692 C16.5077159,4.43138462 15.0429659,3.00419231 13.2369659,3.00419231 Z M7.62921589,3.36957692 C7.29471589,3.36957692 7.02246589,3.63484615 7.02171589,3.96076923 C7.02171589,4.28888462 7.29471589,4.55269231 7.62921589,4.55269231 L8.75121589,4.55269231 C9.08721589,4.55269231 9.35871589,4.28815385 9.35871589,3.96076923 C9.35871589,3.63411538 9.08646589,3.36957692 8.75121589,3.36957692 L7.62921589,3.36957692 Z M21.4074659,4.30934615 C21.4074659,4.30934615 29.9514659,7.10892308 24.8507159,12.4106538 C22.4537159,14.9018462 18.2222159,15.7480769 15.5334659,16.0345385 L15.5334659,14.2039615 C20.1114659,13.8378462 23.1429659,11.9707308 23.8247159,11.3795385 C28.0209659,7.733 21.4074659,4.30934615 21.4074659,4.30934615 Z M13.5812159,14.6548462 C13.9809659,14.9208462 13.9809659,15.3556538 13.5812159,15.6216538 L10.5219659,17.6612308 C10.1237159,17.9265 9.79671589,17.7598846 9.79671589,17.2878077 L9.79671589,15.9936154 C9.79671589,15.9621923 9.79671589,15.9212692 9.79671589,15.8876538 C7.16121589,15.4937692 3.70371589,14.5715385 1.62396589,12.4099231 C-3.47678411,7.10819231 5.06796589,4.30861538 5.06796589,4.30861538 C5.06796589,4.30861538 -1.54628411,7.73226923 2.65071589,11.3788077 C3.27321589,11.9203077 5.86296589,13.5214231 9.79671589,14.0738846 L9.79671589,12.9886923 C9.79671589,12.5180769 10.1237159,12.35 10.5219659,12.616 L13.5812159,14.6548462 Z" id="Combined-Shape"></path>
                </g>
            </g>
        </g>
    </g>
</svg>